
<svg xmlns="http://www.w3.org/2000/svg" width="48" height="48" viewBox="0 0 1000 1000" xml:space="preserve"><switch><g><circle fill="#382B73" cx="500" cy="500" r="398"/><circle fill="#473080" cx="500" cy="500" r="344.3"/><path fill="#382B73" d="m788.5 470.4-276-158.8c-7.7-4.4-17.2-4.4-24.9 0L307 415.5l-20.7-5.7-.9-.3h-.1c-.7-.1-1.4-.2-2.1-.2-5.5 0-10 4.5-10 10V435l-61.6 35.4c-4.7 2.7-7.5 7.6-7.5 13v2.1c0 5.6 3.2 10.8 8.2 13.4l11.4 6.6c.9.8 1.9 1.6 3 2.3l46.5 26.8v66.8c-8.9 3.9-15.1 12.7-15.1 23.1v43.9h50.1v-43.9c0-6.9-2.8-13.2-7.4-17.8-2.2-2.2-4.9-4-7.8-5.3V546l62.1 35.7v16c0 8.9 5.8 17.3 16 24.7 4.3 26.1 16.2 49.6 33.5 68 1 1 2 2.1 3 3.1s2 2 3.1 3c19.5 18.3 44.6 30.6 72.4 34.2l2.7.3c.9.1 1.9.2 2.8.3.5 0 1.1.1 1.6.1 1 .1 2.1.1 3.1.2.8 0 1.5.1 2.3.1h8.1c.8 0 1.5-.1 2.3-.1 1-.1 2.1-.1 3.1-.2.5 0 1.1-.1 1.6-.1.9-.1 1.9-.2 2.8-.3l2.7-.3c27.8-3.6 52.9-15.9 72.4-34.2 1-1 2.1-2 3.1-3s2-2 3-3.1c17.3-18.5 29.3-42 33.5-68 10.2-7.4 16-15.8 16-24.7v-16l128.6-74c1.1-.6 2.1-1.4 3-2.3l11.4-6.6c5-2.6 8.2-7.7 8.2-13.4v-2.1c.6-5.3-2.3-10.2-6.9-12.9z"/><g><path fill="#009ADD" d="M500 645 212.2 478.9c-5-2.6-8.2-7.7-8.2-13.4v-2.1c0-5.4 2.9-10.3 7.5-13l276-158.8c7.7-4.4 17.2-4.4 24.9 0l276 158.8c4.7 2.7 7.5 7.6 7.5 13v2.1c0 5.6-3.2 10.8-8.2 13.4L500 645z"/><path fill="#136DA0" d="M500 645 226.6 487.7c-10-5.8-10-20.2 0-26L500 304.4l273.4 157.3c10 5.8 10 20.2 0 26L500 645z"/><path fill="#1CAEE4" d="M644.8 577.7c0-29.8-64.8-53.9-144.8-53.9S355.2 548 355.2 577.7v-123c0-29.8 64.8-53.9 144.8-53.9s144.8 24.1 144.8 53.9v123z"/><ellipse fill="#009ADD" cx="500" cy="577.7" rx="144.8" ry="53.9"/><path fill="#136DA0" d="M630.3 577.7c0 2.4-.6 4.7-1.7 7-.1.3-.3.5-.4.8-4.2 7.6-14.3 14.5-28.8 20.1-3.6 1.4-7.4 2.7-11.5 4-12.8 3.9-27.9 6.9-44.6 8.8-3 .4-6 .7-9 .9-.6.1-1.3.1-2 .2h-.5c-1.8.2-3.7.3-5.5.4-7.1.5-14.4.8-21.9.9h-8.6c-7-.1-13.9-.3-20.6-.8-2-.1-3.9-.3-5.9-.4-.5 0-1-.1-1.5-.1s-.9-.1-1.4-.1c-3.3-.3-6.5-.6-9.6-1-16.7-1.9-31.8-5-44.6-8.8-4.1-1.2-8-2.6-11.6-4-14.5-5.6-24.6-12.5-28.8-20.1-.1-.3-.3-.5-.4-.8-1.1-2.3-1.7-4.6-1.7-7v-.8c.1-2.6 1-5.1 2.4-7.5 4.6-7.8 15.4-14.8 30.8-20.4 3.8-1.4 7.9-2.7 12.2-4 10.5-3 22.5-5.4 35.5-7.2 3.5-.5 7.1-.9 10.8-1.3 3.5-.4 7.1-.7 10.8-.9 2-.1 4-.3 6-.4 5.8-.3 11.6-.5 17.6-.6h8.6c6.7.1 13.3.3 19.8.7 1.9.1 3.9.3 5.8.4 3 .2 5.9.5 8.8.8 3.7.4 7.3.8 10.8 1.3 13 1.8 25 4.2 35.5 7.2 4.3 1.2 8.4 2.5 12.2 4 15.3 5.7 26.2 12.7 30.8 20.4 1.4 2.4 2.3 4.9 2.4 7.5-.2.3-.2.6-.2.8z"/><path fill="#E6E7E8" d="m285.2 389.4 21.8 6.1-21.8 12.5z"/><path fill="#E6E7E8" d="M283.1 635c-5.5 0-10-4.5-10-10V399.2c0-5.5 4.5-10 10-10s10 4.5 10 10V625c0 5.5-4.5 10-10 10z"/><path fill="#D1D3D4" d="M293.1 399.2c0-3.7-2-6.9-5-8.7-3 1.7-5 5-5 8.7V625c0 3.7 2 6.9 5 8.7 3-1.7 5-5 5-8.7V399.2z"/><path fill="#BCBEC0" d="M308.2 604.3v43.9H258v-43.9c0-13.9 11.3-25.1 25.1-25.1 6.9 0 13.2 2.8 17.8 7.4 4.5 4.5 7.3 10.8 7.3 17.7z"/><path fill="#E6E7E8" d="M277.6 595.3v52.9h-8v-44.8c0-4.5 3.6-8.1 8-8.1zM296.6 603.3v44.8h-8v-52.9c4.4.1 8 3.7 8 8.1z"/><path fill="#FFF335" d="M630.4 577h-.1c-.1-2.6-1-5.1-2.4-7.5-4.6-7.8-15.4-14.8-30.8-20.4-3.8-1.4-7.9-2.7-12.2-4-10.5-3-22.5-5.4-35.5-7.2-3.5-.5-7.1-.9-10.8-1.3-2.9-.3-5.8-.6-8.8-.8-1.9-.1-3.8-.3-5.8-.4-6.4-.4-13-.6-19.8-.7h-8.6c-6 .1-11.9.3-17.6.6-2 .1-4 .2-6 .4-3.6.3-7.3.6-10.8.9-3.7.4-7.3.8-10.8 1.3-13 1.8-25 4.2-35.5 7.2-4.3 1.2-8.4 2.5-12.2 4-15.3 5.7-26.2 12.7-30.8 20.4-1.4 2.4-2.3 4.9-2.4 7.5h-.1c0 1.4-.1 2.8-.1 4.3s0 2.9.1 4.3c1 32.8 14.2 62.6 35.2 84.9 1 1 2 2.1 3 3.1s2 2 3.1 3c19.5 18.3 44.6 30.6 72.4 34.2l2.7.3c.9.1 1.9.2 2.8.3.5 0 1.1.1 1.6.1 1 .1 2.1.1 3.1.2.8 0 1.5.1 2.3.1h8.1c.8 0 1.5-.1 2.3-.1 1-.1 2.1-.1 3.1-.2.5 0 1.1-.1 1.6-.1.9-.1 1.9-.2 2.8-.3l2.7-.3c27.8-3.6 52.9-15.9 72.4-34.2 1-1 2.1-2 3.1-3s2-2 3-3.1c21-22.4 34.1-52.1 35.2-84.9 0-1.4.1-2.8.1-4.3s.5-2.9.4-4.3z"/><path fill="#E7AD27" d="M628.6 583.1v4.2c-1 31.9-13.6 60.8-33.7 82.7-.8.9-1.7 1.8-2.5 2.7l-1.9 1.9-.1.1-1.4 1.4c-19.3 18.4-44.3 30.9-72 34.5l-2.7.3c-.9.1-1.9.2-2.8.3-.5 0-1.1.1-1.6.1-1 .1-2.1.1-3.1.2-.8 0-1.5.1-2.3.1h-8.1c-.8 0-1.5-.1-2.3-.1-1-.1-2.1-.1-3.1-.2-.5 0-1.1-.1-1.6-.1-.9-.1-1.9-.2-2.8-.3l-2.7-.3c-27.8-3.6-52.8-16.1-72-34.5-.5-.5-1-.9-1.4-1.4-1.6-1.5-3.1-3.1-4.5-4.7-20.1-21.9-32.7-50.8-33.7-82.7v-4.2c0-1.4 0-2.8.1-4.2 0-.4 0-.8.1-1.2v-.7c.1-2.5.3-5 .6-7.5 4.6-7.8 15.4-14.8 30.8-20.4 3.8-1.4 7.9-2.7 12.2-4 10.5-3 22.5-5.4 35.5-7.2 3.5-.5 7.1-.9 10.8-1.3 3.5-.4 7.1-.7 10.8-.9 2-.1 4-.3 6-.4 5.8-.3 11.6-.5 17.6-.6h8.6c6.7.1 13.3.3 19.8.7 1.9.1 3.9.3 5.8.4 3 .2 5.9.5 8.8.8 3.7.4 7.3.8 10.8 1.3 13 1.8 25 4.2 35.5 7.2 4.3 1.2 8.4 2.5 12.2 4 15.3 5.7 26.2 12.7 30.8 20.4.3 2.5.5 5 .6 7.5v1.9c-1.1 1.4-1.1 2.8-1.1 4.2z"/><path fill="#F7CB15" d="M630.5 581.2c0 1.4 0 2.9-.1 4.3H369.6c0-1.4-.1-2.8-.1-4.3s0-2.9.1-4.3h260.9v4.3z"/><path fill="#FEDE3A" d="M630.5 581.2c0 1.4 0 2.9-.1 4.3h-1.8V583.1c0-1.4 0-2.8-.1-4.2V577h2v4.2zM371.5 577v.7c0 .4 0 .8-.1 1.2 0 1.4-.1 2.8-.1 4.2V585.5h-1.8c0-1.4-.1-2.8-.1-4.3s0-2.9.1-4.3h2z"/><path fill="#F7CB15" d="M504.3 534.6v177h-8.1v-177h8.1z"/><path fill="#FEDE3A" d="M495.7 711.7h.4-.4zM502.5 711.7h-.1.1zM503.8 711.7h.1-.1zM504.3 711.7h-.4.4zM497.8 711.7h-.3.3z"/><g><path fill="#F7CB15" d="M595.3 670.4c-1 1-2 2.1-3 3.1s-2 2-3.1 3l-.4-.4-19.6-19.6-7.1-7.1-28.4-28.4-1.6-1.6-.3-.3-2.7-2.7-12.1-12.1-.7-.7-11.3-11.3-.6-.6-4.3-4.3-1.8-1.8-2.5-2.5-1.8-1.8-.3-.3-4-4-20.5-20.5-.5-.5-18.1-18.1c3.5-.5 7.1-.9 10.8-1.3l7.8 7.8 1.5 1.5 16.2 16.2 7.1 7.1 1.7 1.7 4.3 4.3 1.8 1.8 2.5 2.5 1.8 1.8 4.3 4.3 23 23 1.2 1.2.1.1 8.6 8.6 52 51.9z"/></g><g><path fill="#FEDE3A" d="M595.3 670.4c-1 1-2 2.1-3 3.1s-2 2-3.1 3l-.4-.4c.5-.5 1-.9 1.4-1.4l.1-.1c.7-.6 1.3-1.3 1.9-1.9.9-.9 1.7-1.8 2.5-2.7l.6.4z"/></g><g><path fill="#F7CB15" d="M549.4 537.8 500 587.3l-2.2 2.2-2.1 2.1-57.9 57.9-7.1 7.1-19.6 19.6-.4.4c-1-1-2.1-2-3.1-3s-2-2-3-3.1l.4-.4 19.5-19.5 7.1-7.1 33.5-33.5.5-.6 1.4-1.4 71.4-71.4c3.9.3 7.5.8 11 1.2z"/></g><g><path fill="#FEDE3A" d="m411.2 676.1-.4.4c-1-1-2.1-2-3.1-3s-2-2-3-3.1l.4-.4c1.5 1.6 3 3.2 4.5 4.7.6.5 1.1 1 1.6 1.4z"/></g><g><path fill="#FFF335" d="M602.3 581.2c0 1.4 0 2.9-.1 4.3-.3 6.9-1.3 13.6-2.8 20.1-4.2 17-12.6 32.4-24.1 44.9-1.9 2.1-3.9 4.1-6 6-17.3 15.9-40 25.9-65 26.9-1.4.1-2.9.1-4.3.1s-2.9 0-4.3-.1c-25-1-47.7-11.1-65-26.9-2.1-1.9-4.1-3.9-6.1-6a102.72 102.72 0 0 1-24.1-44.9c-1.6-6.5-2.6-13.2-2.8-20.1-.1-1.4-.1-2.8-.1-4.3s0-2.9.1-4.3c.4-9.7 2.2-19.1 5.1-28 3.8-1.4 7.9-2.7 12.2-4 10.5-3 22.5-5.4 35.5-7.2 3.5-.5 7.1-.9 10.8-1.3 3.5-.4 7.1-.7 10.8-.9 2-.1 4-.3 6-.4 5.8-.3 11.6-.5 17.6-.6h8.6c6.7.1 13.3.3 19.8.7 1.9.1 3.9.3 5.8.4 3 .2 5.9.5 8.8.8 3.7.4 7.3.8 10.8 1.3 13 1.8 25 4.2 35.5 7.2 4.3 1.2 8.4 2.5 12.2 4 2.9 8.8 4.7 18.2 5.1 28v4.3z"/></g><g><path fill="#FEDE3A" d="M592.3 581.2c0 1.4 0 2.9-.1 4.3-.4 8.3-1.9 16.4-4.3 24.1-4.1 12.7-10.9 24.2-19.6 33.8-1.9 2.1-3.9 4.1-6.1 6-15.4 14.1-35.6 23-57.9 24-1.4.1-2.9.1-4.3.1s-2.9 0-4.3-.1c-22.3-1-42.5-9.9-57.9-24-2.1-1.9-4.1-3.9-6-6-8.8-9.6-15.6-21.1-19.6-33.8-2.5-7.6-4-15.7-4.3-24.1-.1-1.4-.1-2.9-.1-4.3s0-2.9.1-4.3c.5-11.3 3.1-22.1 7.3-31.9 10.5-3 22.5-5.4 35.5-7.2 3.5-.5 7.1-.9 10.8-1.3 3.5-.4 7.1-.7 10.8-.9 2-.1 4-.3 6-.4h.1c4.4-.2 8.8-.4 13.3-.5 1.4 0 2.8-.1 4.2-.1h8.6c2.4 0 4.7.1 7.1.1 4.3.1 8.5.3 12.6.6h.1c1.9.1 3.9.3 5.8.4 3 .2 5.9.5 8.8.8 3.7.4 7.3.8 10.8 1.3 13 1.8 25 4.2 35.5 7.2 4.2 9.9 6.8 20.6 7.3 31.9-.2 1.5-.2 2.9-.2 4.3z"/></g><g><path fill="#E7AD27" d="M534.9 613c0 4.3-.7 8.3-2.1 11.8-1.5 3.6-3.6 6.7-6.3 9.4-2.7 2.6-5.9 4.6-9.6 6.1-1.2.5-2.4.9-3.6 1.2-2.2.6-3.8 2.6-3.8 4.9v5.9c0 1.8-1.5 3.3-3.3 3.3h-9.8c-1.8 0-3.3-1.5-3.3-3.3v-5.7c0-2.3-1.6-4.3-3.8-4.9-1.1-.3-2.1-.6-3.2-.9-4-1.3-7.5-3.4-10.6-6.1-3.1-2.7-5.7-6.3-7.5-10.5-1.8-4.2-2.8-9.2-2.8-15v-1.6c0-1.8 1.5-3.3 3.3-3.3h11.1c1.8 0 3.3 1.5 3.3 3.3v1.6c0 3.5.5 6.4 1.6 8.5 1.1 2.2 2.4 3.8 4 5.1 1.7 1.3 3.5 2.2 5.5 2.7 2.3.6 4.6.9 6.8.9 2.8 0 5.2-.4 7.3-1.1 2-.7 3.7-1.7 5.1-2.9 1.3-1.2 2.3-2.5 2.9-4 .7-1.6 1-3.3 1-5.2 0-1.8-.3-3.4-.8-4.8-.5-1.3-1.3-2.5-2.5-3.6-1.3-1.3-3.2-2.6-5.5-3.8-2.5-1.3-5.7-2.6-9.5-4-4.4-1.4-8.4-2.9-11.9-4.6-3.8-1.8-7-4-9.7-6.5-2.8-2.6-5-5.7-6.5-9.3-1.5-3.5-2.3-7.6-2.3-12.2 0-4.2.7-8.1 2.1-11.6 1.4-3.6 3.4-6.7 6-9.4 2.6-2.6 5.7-4.7 9.3-6.3 1.1-.5 2.3-.9 3.6-1.3.8-.2 1.5-.6 2-1.1 1.4 0 2.8-.1 4.2-.1h8.6c2.4 0 4.7.1 7.1.1.6.5 1.2.9 2 1.2 1.4.4 2.7 1 3.9 1.6 3.6 1.8 6.8 4.2 9.3 7.2 2.5 3 4.4 6.6 5.7 10.7 1.3 4 1.9 8.5 1.9 13.4v1.6c0 1.9-1.5 3.3-3.3 3.3h-11c-1.9 0-3.3-1.5-3.3-3.3v-1.6c0-2.8-.4-5.3-1.1-7.6-.7-2.1-1.6-4-2.9-5.5-1.2-1.5-2.7-2.6-4.6-3.4-1.9-.8-4.1-1.3-6.7-1.3-2.8 0-5.2.4-7.1 1.1-1.8.7-3.3 1.6-4.5 2.8-1.1 1.2-2 2.5-2.5 4-.6 1.6-.9 3.4-.9 5.3s.2 3.6.7 5c.4 1.2 1.1 2.3 2.2 3.4 1.3 1.3 3.1 2.6 5.5 3.8 2.6 1.3 6 2.7 10.1 4.1 4.3 1.4 8.3 3 11.8 4.7 3.8 1.8 7 3.9 9.7 6.4 2.8 2.6 5 5.7 6.5 9.2 1.5 3.5 2.2 7.6 2.2 12.2z"/><path fill="#FFF" d="M534.9 606.3c0 4.3-.7 8.3-2.1 11.8-1.5 3.6-3.6 6.7-6.3 9.4-2.7 2.6-5.9 4.6-9.6 6.1-1.2.5-2.4.9-3.6 1.2-2.2.6-3.8 2.6-3.8 4.9v5.9c0 1.8-1.5 3.3-3.3 3.3h-9.8c-1.8 0-3.3-1.5-3.3-3.3v-5.7c0-2.3-1.6-4.3-3.8-4.8-1.1-.3-2.1-.6-3.2-.9-4-1.3-7.5-3.4-10.6-6.1-3.1-2.7-5.7-6.3-7.5-10.5-1.8-4.2-2.8-9.2-2.8-15V601c0-1.8 1.5-3.3 3.3-3.3h11.1c1.8 0 3.3 1.5 3.3 3.3v1.6c0 3.5.5 6.4 1.6 8.5 1.1 2.2 2.4 3.8 4 5.1 1.7 1.3 3.5 2.2 5.5 2.7 2.3.6 4.6.9 6.8.9 2.8 0 5.2-.4 7.3-1.1 2-.7 3.7-1.7 5.1-2.9 1.3-1.2 2.3-2.5 2.9-4 .7-1.6 1-3.3 1-5.1 0-1.8-.3-3.5-.8-4.8-.5-1.3-1.3-2.5-2.5-3.6-1.3-1.3-3.2-2.6-5.5-3.8-2.5-1.3-5.7-2.6-9.5-4-4.4-1.4-8.4-2.9-11.9-4.6-3.8-1.8-7-4-9.7-6.4-2.8-2.6-5-5.7-6.5-9.3-1.5-3.5-2.3-7.6-2.3-12.2 0-4.2.7-8.1 2.1-11.6 1.4-3.6 3.4-6.7 6-9.4.5-.5 1.1-1 1.6-1.5 5.7-.3 11.6-.5 17.5-.6h8.6c6.7.1 13.3.3 19.7.7.9.8 1.8 1.7 2.6 2.7 2.5 3 4.4 6.6 5.7 10.7 1.3 4 1.9 8.5 1.9 13.4v1.6c0 1.9-1.5 3.4-3.3 3.4h-11c-1.9 0-3.3-1.5-3.3-3.4v-1.6c0-2.8-.4-5.3-1.1-7.6-.7-2.1-1.6-4-2.9-5.5-1.2-1.5-2.7-2.6-4.6-3.4-1.9-.8-4.1-1.3-6.7-1.3-2.8 0-5.2.4-7.1 1.1-1.8.7-3.3 1.6-4.5 2.8-1.1 1.2-2 2.5-2.5 4-.6 1.6-.9 3.4-.9 5.3s.2 3.6.7 5c.4 1.2 1.1 2.3 2.2 3.4 1.3 1.3 3.1 2.6 5.5 3.8 2.6 1.3 6 2.7 10.1 4.1 4.3 1.4 8.3 3 11.8 4.7 3.8 1.8 7 4 9.7 6.4 2.8 2.6 5 5.7 6.5 9.2 1.5 3.3 2.2 7.3 2.2 11.9z"/><path fill="#D1D3D4" d="M487.1 548.1c-.6 1.6-.9 3.4-.9 5.3 0 .8 0 1.5.1 2.2.1-1.2.4-2.3.8-3.3.6-1.5 1.4-2.8 2.5-4 1.1-1.1 2.6-2.1 4.5-2.8 2-.7 4.4-1.1 7.1-1.1 2.6 0 4.8.4 6.7 1.3 1.8.8 3.3 1.9 4.6 3.4 1.3 1.5 2.3 3.4 2.9 5.5.7 2.3 1.1 4.8 1.1 7.6v1.6c0 1.8 1.5 3.3 3.3 3.3h11c1.8 0 3.3-1.5 3.3-3.3V560c-.2 1.6-1.6 2.9-3.3 2.9h-11c-1.8 0-3.3-1.5-3.3-3.3V558c0-2.8-.4-5.3-1.1-7.6-.7-2.1-1.6-4-2.9-5.5-1.2-1.5-2.7-2.6-4.6-3.4-1.9-.8-4.1-1.3-6.7-1.3-2.8 0-5.2.4-7.1 1.1-1.8.7-3.3 1.6-4.5 2.8-1.1 1.2-1.9 2.5-2.5 4zM477.3 579.2c2.7 2.5 6 4.7 9.7 6.5 3.5 1.7 7.5 3.2 11.9 4.6 3.8 1.3 7 2.7 9.5 4 2.3 1.2 4.2 2.5 5.5 3.8 1.2 1.2 2 2.3 2.5 3.6.3.8.5 1.7.6 2.6.1-.6.2-1.3.2-2 0-1.8-.3-3.5-.8-4.8-.5-1.3-1.3-2.5-2.5-3.6-1.3-1.3-3.2-2.6-5.5-3.8-2.5-1.3-5.7-2.6-9.5-4-4.4-1.4-8.4-2.9-11.9-4.6-3.8-1.8-7-4-9.7-6.5-2.8-2.6-5-5.7-6.5-9.3-1.3-2.9-2-6.3-2.2-10.1 0 .7-.1 1.4-.1 2 0 4.6.8 8.7 2.2 12.2 1.6 3.7 3.8 6.8 6.6 9.4zM532.8 614c-1.4 3.6-3.6 6.7-6.3 9.4-2.7 2.6-5.9 4.6-9.6 6.1-1.2.5-2.4.9-3.6 1.2-2.2.6-3.8 2.6-3.8 4.9v4.2c0-2.3 1.6-4.2 3.8-4.9 1.2-.4 2.5-.8 3.6-1.2 3.7-1.5 6.9-3.5 9.6-6.1 2.7-2.6 4.8-5.8 6.3-9.4 1.4-3.5 2.1-7.5 2.1-11.8 0-.7 0-1.4-.1-2.1-.1 3.4-.8 6.7-2 9.7zM493 635.7c0-2.3-1.6-4.3-3.8-4.9-1.1-.3-2.1-.6-3.2-.9-4-1.3-7.5-3.4-10.6-6.1-3.1-2.7-5.7-6.3-7.5-10.5-1.6-3.7-2.5-8-2.7-12.9v2.1c0 5.8.9 10.8 2.8 15 1.9 4.2 4.4 7.8 7.5 10.5 3.1 2.7 6.7 4.7 10.6 6.1 1 .4 2.1.7 3.2.9 2.2.6 3.8 2.6 3.8 4.9v-4.2zM506.1 644.7h-9.8c-1.8 0-3.3-1.5-3.3-3.3v4.2c0 1.8 1.5 3.3 3.3 3.3h9.8c1.8 0 3.3-1.5 3.3-3.3v-4.2c.1 1.8-1.4 3.3-3.3 3.3z"/></g><g><path fill="#F7CB15" d="M630.3 577c-.1-2.6-1-5.1-2.4-7.5.3 2.5.5 5 .6 7.5h1.8zM372.1 569.4c-1.4 2.4-2.3 4.9-2.4 7.5h1.8c.1-2.5.3-5 .6-7.5z"/><path fill="#E7AD27" d="M608.8 574.3c2.3.8 4.5 1.7 6.6 2.6h13.1c-.1-2.5-.3-5-.6-7.5-4.6-7.8-15.4-14.8-30.8-20.4 2.4 7.3 4 15 4.7 23 2.5.7 4.8 1.5 7 2.3zM371.5 577h13.1c2.1-.9 4.3-1.8 6.6-2.6 2.2-.8 4.5-1.6 6.9-2.4.7-8 2.3-15.7 4.8-23-15.3 5.7-26.2 12.7-30.8 20.4-.3 2.5-.5 5-.6 7.6z"/><path fill="#F7CB15" d="M628.6 578.9V577h-13.1c5 2.1 9.4 4.4 13.3 6.8v-.6c-.2-1.5-.2-2.9-.2-4.3zM371.5 577.7c0 .4 0 .8-.1 1.2 0 1.4-.1 2.8-.1 4.2v.6c3.9-2.4 8.3-4.6 13.3-6.8h-13.1v.8z"/><path fill="#FEDE3A" d="M628.5 577v1.9c0 1.4.1 2.8.1 4.2v.6l1.8 1.2c0-1.2.1-2.4.1-3.6 0-1.4 0-2.9-.1-4.3H628.5zM371.4 583.1c0-1.4 0-2.8.1-4.2 0-.4 0-.8.1-1.2v-.7H369.7c0 1.4-.1 2.8-.1 4.3 0 1.2 0 2.4.1 3.6l1.8-1.2c-.1-.2-.1-.4-.1-.6z"/><path fill="#F7CB15" d="M595.1 569.9c2.3.7 4.6 1.3 6.8 2.1-.7-8-2.3-15.6-4.7-23-3.8-1.4-7.9-2.7-12.2-4 3.2 7.5 5.4 15.5 6.5 23.9 1.2.3 2.4.7 3.6 1zM404.9 569.9c1.2-.3 2.4-.7 3.6-1 1.1-8.4 3.4-16.4 6.6-23.9-4.3 1.2-8.4 2.5-12.2 4-2.4 7.3-4 15-4.8 23 2.2-.7 4.5-1.4 6.8-2.1z"/><path fill="#E7AD27" d="M584.9 545c-10.5-3-22.5-5.4-35.5-7.2-3.5-.5-7.1-.9-10.8-1.3-2.9-.3-5.8-.6-8.8-.8-1.9-.1-3.8-.3-5.8-.4-2.6-.2-5.3-.3-8-.4 2.6.1 5.3.2 7.9.4.9.8 1.8 1.7 2.6 2.7 2.5 3 4.4 6.6 5.7 10.7 1 3.3 1.6 6.9 1.8 10.8 3.1.3 6.1.5 9.1.8 4.1.4 8.2.9 12.1 1.4 13.1 1.8 25.2 4.2 36.1 7.1-.9-8.2-3.2-16.3-6.4-23.8zM512.5 549.1c-1.2-1.5-2.7-2.6-4.6-3.4-1.9-.8-4.1-1.3-6.7-1.3-2.8 0-5.2.4-7.1 1.1-1.8.7-3.3 1.6-4.5 2.8-1.1 1.2-2 2.5-2.5 4-.6 1.6-.9 3.4-.9 5.3v.9c1.6-.1 2.7-.1 2.7-.1s4.1-.1 6.2-.1h9.6c3.1 0 6.2.1 9.3.2.7 0 1.4 0 2.1.1-.2-1.4-.5-2.7-.8-4-.5-2.1-1.5-4-2.8-5.5zM468.5 557.7c0-4.2.7-8.1 2.1-11.6 1.4-3.6 3.4-6.7 6-9.4.5-.5 1-1 1.6-1.5h-.1c-2 .1-4 .2-6 .4-3.6.3-7.3.6-10.8.9-3.7.4-7.3.8-10.8 1.3-13 1.8-25 4.2-35.5 7.2-3.2 7.5-5.4 15.5-6.6 23.9 10.9-2.9 23-5.3 36.1-7.1 4-.5 8-1 12.1-1.4 3.9-.4 7.8-.7 11.8-1 .1-.6.1-1.1.1-1.7z"/><g><path fill="#BCBEC0" d="M526.6 538c-.8-1-1.7-1.9-2.6-2.7-2.6-.2-5.2-.3-7.9-.4-3.9-.2-7.8-.3-11.8-.3h-8.6c-6 .1-11.8.3-17.5.6-.5.5-1.1 1-1.6 1.5-2.6 2.6-4.6 5.8-6 9.4-1.4 3.5-2.1 7.4-2.1 11.6v1.7H468.8c2.2-.2 4.4-.3 6.7-.4 3.6-.2 7.2-.4 10.8-.5v-.9c0-1.3.1-2.5.4-3.6v-.1c.1-.6.3-1.1.5-1.6.5-1.5 1.4-2.8 2.5-4 1.1-1.1 2.6-2.1 4.5-2.8 2-.7 4.4-1.1 7.1-1.1 2.5 0 4.8.4 6.7 1.3 1.8.8 3.3 1.9 4.6 3.4 1.3 1.5 2.3 3.4 2.9 5.5.4 1.2.7 2.6.8 4 3.6.1 7.2.3 10.7.5 2.2.1 4.3.3 6.5.4.2 0 .4 0 .6.1h.2c-.2-3.9-.8-7.6-1.8-10.8-1.5-4.2-3.4-7.8-5.9-10.8z"/></g></g></g></g></switch></svg>